HIERARCHY
ROOT Hips
{
  OFFSET 0 0 0
  CHANNELS 6 Xposition Yposition Zposition Zrotation Yrotation Xrotation
  JOINT LeftThigh
  {
    OFFSET 8.409438 0 -5.917753
    CHANNELS 3 Zrotation Yrotation Xrotation
    JOINT LeftLeg
    {
      OFFSET 0 0 -42.358652
      CHANNELS 3 Zrotation Yrotation Xrotation
      JOINT LeftFoot
      {
        OFFSET 0 0 -39.357303
        CHANNELS 3 Zrotation Yrotation Xrotation
      }
    }
  }
  JOINT RightThigh
  {
    OFFSET -8.409438 0 -5.917753
    CHANNELS 3 Zrotation Yrotation Xrotation
    JOINT RightLeg
    {
      OFFSET 0 0 -42.358652
      CHANNELS 3 Zrotation Yrotation Xrotation
      JOINT RightFoot
      {
        OFFSET 0 0 -39.357303
        CHANNELS 3 Zrotation Yrotation Xrotation
      }
    }
  }
  JOINT SpineLow
  {
    OFFSET 0 0 4.719101
    CHANNELS 3 Zrotation Yrotation Xrotation
    JOINT SpineMid
    {
      OFFSET 0 0 12.899191
      CHANNELS 3 Zrotation Yrotation Xrotation
      JOINT Chest
      {
        OFFSET 0 0 12.899191
        CHANNELS 3 Zrotation Yrotation Xrotation
        JOINT LeftShoulder
        {
          OFFSET 7.550562 1.41573 9.438202
          CHANNELS 3 Zrotation Yrotation Xrotation
          JOINT LeftArm
          {
            OFFSET 9.155056 0 4.247191
            CHANNELS 3 Zrotation Yrotation Xrotation
            JOINT LeftForearm
            {
              OFFSET 0 0 25.771955
              CHANNELS 3 Zrotation Yrotation Xrotation
              JOINT LeftHand
              {
                OFFSET 0 0 25.197169
                CHANNELS 3 Zrotation Yrotation Xrotation
              }
            }
          }
        }
        JOINT RightShoulder
        {
          OFFSET -7.550562 1.41573 9.438202
          CHANNELS 3 Zrotation Yrotation Xrotation
          JOINT RightArm
          {
            OFFSET -9.155056 0 4.247191
            CHANNELS 3 Zrotation Yrotation Xrotation
            JOINT RightForearm
            {
              OFFSET 0 0 -25.771955
              CHANNELS 3 Zrotation Yrotation Xrotation
              JOINT RightHand
              {
                OFFSET 0 0 -25.197169
                CHANNELS 3 Zrotation Yrotation Xrotation
              }
            }
          }
        }
        JOINT Neck
        {
          OFFSET 0 0 15.101124
          CHANNELS 3 Zrotation Yrotation Xrotation
          JOINT Head
          {
            OFFSET 0 0 11.325843
            CHANNELS 3 Zrotation Yrotation Xrotation
            End Site
            {
              OFFSET 0 0 14.157303
            }
          }
        }
      }
    }
  }
}
MOTION
Frames: 10
Frame Time: 0.0
0.0  101.685394  0.0  0.301157  -0.561818  -114.968744  24.760923  -18.867327  2.024645  -18.836714  18.236712  24.502731  -10.814542  0.384557  -1.935705  5.667102  -24.605899  -79.40774  54.717302  27.260482  130.570506  33.153346  5.265649  8.206875  -5.312327  1.289589  3.134759  -14.34285  4.185055  8.248398  -14.34285  4.185055  8.248398  5.614059  8.188164  16.420545  -10.985955  69.078009  27.286192  -43.925838  -32.214833  39.531591  38.97831  -26.535559  10.345477  58.97984  3.943188  13.889611  -155.413018  73.180805  148.32458  -37.478507  -3.964296  -52.664075  113.218439  -32.281682  -1.602255  5.143824  -3.837127  -0.26018  3.85479  -2.880276  -0.162736  
0.0  101.685394  0.0  -0.363835  -0.344395  -115.985092  25.704895  -20.296717  2.331895  -19.817611  18.770919  24.98203  -11.199747  0.365405  -2.042543  4.33633  -24.321676  -82.394787  55.80091  24.066252  129.282166  33.609623  1.864678  7.299264  -5.37571  1.202078  3.246225  -14.518039  3.979408  8.565671  -14.51804  3.979408  8.565671  5.978943  9.105559  17.328562  -11.785508  72.793725  26.796197  -44.693957  -35.657727  45.258154  39.408525  -25.41823  8.342806  57.853532  3.100253  14.550841  -159.560772  76.050805  143.216734  -38.423545  -2.687281  -56.329457  114.181989  -32.015519  -0.883316  4.519762  -3.812423  0.138331  3.389434  -2.85848  0.131951  
0.0  101.685394  0.0  -1.106648  -0.148893  -116.696777  26.375855  -21.6826  2.417194  -20.385225  19.26392  25.498022  -11.521069  0.34704  -2.141104  3.114116  -24.120798  -85.680588  56.586891  20.895379  127.576277  33.843415  -1.69483  6.458582  -5.553218  1.039153  3.311614  -15.017368  3.57449  8.766918  -15.017368  3.57449  8.766918  6.988121  10.68647  18.14166  -13.389433  76.728303  25.758132  -45.709701  -39.042701  51.28744  39.557624  -24.261835  6.180406  56.953948  2.530581  15.681143  -166.168008  78.900157  135.281268  -39.316074  -0.986833  -60.007423  115.140238  -31.513252  -0.078387  4.100908  -3.557585  0.491375  3.077558  -2.665038  0.392333  
0.0  101.685394  0.0  -1.821819  -0.031093  -117.113161  26.972077  -22.713973  2.300835  -20.833512  19.553843  26.040445  -11.825875  0.30538  -2.263763  2.041302  -24.094349  -89.148681  57.256877  17.871126  125.471179  33.611942  -5.379364  5.728725  -5.753768  0.862763  3.310262  -15.585813  3.121873  8.790747  -15.585813  3.121873  8.790747  8.214535  12.672857  19.019054  -14.550758  80.659205  25.277731  -47.505355  -41.981396  57.708062  39.660868  -23.160835  3.684753  55.889021  1.876093  17.08069  -178.424941  81.288798  121.355379  -40.19484  0.937989  -63.670291  115.609906  -31.035459  1.204871  3.615599  -3.294826  0.873733  2.715673  -2.466061  0.674659  
0.0  101.685394  0.0  -2.450183  -0.027673  -117.278906  27.410225  -23.272718  1.96951  -21.10227  19.624393  26.70596  -12.136493  0.261124  -2.409717  1.148686  -24.340628  -92.745639  57.989279  15.162667  123.039817  33.199223  -9.129627  5.250697  -5.956992  0.701386  3.244313  -16.163084  2.695013  8.638405  -16.163084  2.695013  8.638405  9.791247  14.692625  20.026714  -12.42208  84.756296  28.321849  -49.982834  -44.194861  64.32018  39.688581  -22.429822  1.019308  54.499271  1.018688  18.727488  161.757377  82.469571  99.492998  -41.089159  2.826749  -67.313747  115.470543  -30.755141  3.338514  3.076274  -3.066575  1.309653  2.313243  -2.293423  0.997484  
0.0  101.685394  0.0  -2.996124  -0.023234  -117.576955  27.560012  -23.745021  1.854328  -21.370365  19.650633  27.343958  -12.24003  0.277599  -2.510361  0.261894  -24.886471  -96.053323  58.925068  12.8226  120.305718  32.760087  -13.001228  5.081271  -6.141253  0.569127  3.172681  -16.684841  2.342427  8.467256  -16.684839  2.342427  8.467255  11.359455  16.99318  20.835974  31.698923  88.399734  73.309715  -52.785122  -45.674182  70.880705  39.710444  -22.002182  -1.058565  52.715756  0.037324  20.811528  141.468391  82.098596  77.00031  -41.931934  4.545497  -70.732225  114.749298  -30.566151  6.587986  2.418823  -2.808831  1.814856  1.822119  -2.099503  1.37202  
0.0  101.685394  0.0  -3.477226  -0.089331  -117.992289  27.439684  -24.166236  1.969258  -22.116661  19.876484  27.580298  -11.799058  0.349102  -2.485588  -0.615601  -25.576645  -99.079665  59.689071  10.635183  117.334117  32.068851  -16.803617  5.211947  -6.243619  0.438345  3.100412  -16.982357  1.982724  8.299386  -16.982358  1.982724  8.299386  12.461605  19.575041  21.859532  124.072746  86.052347  166.539144  -55.664984  -46.756153  77.027255  40.358651  -21.674363  -1.823539  50.162986  -1.106567  23.469677  129.386016  80.534455  62.618773  -42.515971  5.970252  -73.865847  113.193777  -30.239153  11.13229  1.519154  -2.467206  2.328117  1.148613  -1.844664  1.751967  
0.0  101.685394  0.0  -3.921905  -0.322374  -118.369983  27.215119  -24.547248  2.204898  -22.814468  20.02767  27.716564  -11.181489  0.389452  -2.474049  -1.498674  -26.235523  -101.985903  59.863707  8.390199  114.296614  30.982722  -20.301799  5.576773  -6.241944  0.323195  3.008449  -16.994241  1.647234  8.078868  -16.994241  1.647234  8.078868  13.050325  22.663016  23.68379  132.916749  82.181626  176.076998  -58.531217  -48.083144  82.539708  42.07355  -21.636196  -0.260205  46.433592  -2.261644  26.811233  125.686968  78.583668  56.013019  -42.660088  6.999464  -76.605114  111.268547  -29.53946  16.467729  0.383397  -2.18053  2.846037  0.29768  -1.633655  2.13564  
0.0  101.685394  0.0  -4.303978  -0.697366  -118.76342  26.74031  -24.809096  2.651713  -23.380364  20.173652  27.731286  -10.183632  0.395254  -2.393816  -2.217067  -26.941869  -104.622718  59.394428  5.841512  111.346572  29.143341  -23.46104  6.158956  -6.218585  0.20568  2.915305  -16.946567  1.302444  7.856483  -16.946567  1.302444  7.856483  14.163601  25.446652  25.780741  136.26609  77.80628  -179.295568  -60.799487  -49.45935  87.321612  43.532969  -21.419885  3.087334  42.067526  -2.838565  30.724223  125.871063  76.513395  52.644884  -42.296757  7.781802  -78.837713  109.727527  -28.669816  21.579293  -0.755832  -1.866508  3.301654  -0.556757  -1.404015  2.473717  
0.0  101.685394  0.0  -4.588732  -1.266889  -119.298645  26.064343  -25.001625  3.421721  -23.466806  20.143725  27.777556  -9.369524  0.319903  -2.319472  -2.588721  -27.807561  -106.781804  59.139639  4.128965  108.365003  27.618819  -26.555419  7.115579  -6.194936  0.059732  2.81051  -16.900811  0.877723  7.609569  -16.900811  0.877723  7.609569  15.291872  28.504421  29.032517  143.349393  74.497578  -171.236924  -61.003189  -49.633947  90.201887  43.86121  -20.883457  8.051923  38.386031  -3.349683  34.523689  125.535444  73.586295  49.718173  -41.681891  8.487603  -80.391772  109.173764  -28.630525  25.483092  -1.794957  -1.330124  3.658748  -1.33825  -1.008392  2.74006  
